<svg
  width="100%"
  height="100%"
  viewBox="0 0 260 75"
  version="1.1"
  xmlns="http://www.w3.org/2000/svg"
  xmlns:xlink="http://www.w3.org/1999/xlink"
  xml:space="preserve"
  xmlns:serif="http://www.serif.com/"
  style="
    fill-rule: evenodd;
    clip-rule: evenodd;
    stroke-linejoin: round;
    stroke-miterlimit: 2;
  "
>
  <g transform="matrix(3.46863,0,0,0.999007,-0.569862,-0.142307)">
    <rect
      x="0.164"
      y="0.142"
      width="74.865"
      height="75.075"
      style="fill: rgb(255, 235, 59)"
    />
  </g>
  <g transform="matrix(64,0,0,64,7.39062,54.0625)">
    <path
      d="M0.029,-0.2L0.029,-0.317C0.053,-0.319 0.071,-0.322 0.083,-0.328C0.095,-0.334 0.105,-0.344 0.114,-0.358C0.123,-0.372 0.129,-0.389 0.132,-0.41C0.135,-0.425 0.136,-0.452 0.136,-0.491C0.136,-0.554 0.139,-0.598 0.145,-0.623C0.151,-0.648 0.161,-0.668 0.177,-0.683C0.192,-0.698 0.214,-0.71 0.244,-0.719C0.264,-0.725 0.295,-0.728 0.337,-0.728L0.363,-0.728L0.363,-0.611C0.327,-0.611 0.304,-0.609 0.294,-0.605C0.283,-0.601 0.276,-0.595 0.271,-0.587C0.266,-0.578 0.264,-0.564 0.264,-0.544C0.264,-0.523 0.262,-0.485 0.259,-0.427C0.258,-0.395 0.253,-0.369 0.247,-0.349C0.24,-0.329 0.231,-0.312 0.22,-0.299C0.21,-0.286 0.194,-0.273 0.172,-0.259C0.191,-0.248 0.207,-0.235 0.219,-0.22C0.231,-0.205 0.241,-0.187 0.247,-0.166C0.254,-0.145 0.258,-0.117 0.26,-0.081C0.262,-0.027 0.263,0.007 0.263,0.022C0.263,0.044 0.266,0.059 0.271,0.067C0.276,0.076 0.284,0.082 0.295,0.087C0.305,0.091 0.328,0.093 0.363,0.093L0.363,0.21L0.337,0.21C0.293,0.21 0.26,0.207 0.236,0.2C0.213,0.193 0.193,0.181 0.177,0.165C0.161,0.149 0.15,0.129 0.145,0.105C0.139,0.081 0.136,0.043 0.136,-0.008C0.136,-0.068 0.134,-0.107 0.128,-0.125C0.121,-0.151 0.11,-0.17 0.096,-0.181C0.081,-0.192 0.059,-0.199 0.029,-0.2Z"
      style="fill: rgb(54, 54, 54); fill-rule: nonzero"
    />
  </g>
  <g transform="matrix(1,0,0,1,-35.5111,0.675996)">
    <g transform="matrix(42.6667,0,0,42.6667,80.9357,47.9996)">
      <path
        d="M0.408,-0.144C0.403,-0.14 0.396,-0.132 0.389,-0.119C0.354,-0.08 0.319,-0.049 0.286,-0.027C0.252,-0.003 0.215,0.008 0.176,0.007C0.155,0.01 0.134,0.007 0.112,-0.002C0.09,-0.01 0.073,-0.022 0.06,-0.037C0.054,-0.046 0.05,-0.053 0.048,-0.057C0.045,-0.06 0.042,-0.066 0.037,-0.075C0.032,-0.083 0.029,-0.09 0.028,-0.095C0.026,-0.1 0.024,-0.107 0.022,-0.114C0.02,-0.121 0.019,-0.129 0.019,-0.136C0.019,-0.142 0.02,-0.15 0.022,-0.157C0.023,-0.18 0.03,-0.203 0.045,-0.226C0.059,-0.249 0.073,-0.268 0.088,-0.282C0.103,-0.296 0.122,-0.313 0.145,-0.332C0.15,-0.335 0.153,-0.338 0.155,-0.34C0.183,-0.363 0.221,-0.374 0.269,-0.374C0.279,-0.374 0.311,-0.371 0.364,-0.366C0.365,-0.365 0.37,-0.362 0.378,-0.359C0.385,-0.356 0.391,-0.352 0.394,-0.349C0.397,-0.345 0.398,-0.34 0.395,-0.334L0.408,-0.321C0.428,-0.312 0.441,-0.304 0.446,-0.296C0.479,-0.228 0.509,-0.173 0.534,-0.132C0.537,-0.129 0.545,-0.121 0.56,-0.11C0.574,-0.098 0.582,-0.09 0.585,-0.087C0.59,-0.083 0.597,-0.078 0.605,-0.071C0.612,-0.064 0.619,-0.058 0.624,-0.055C0.629,-0.052 0.635,-0.05 0.642,-0.049C0.643,-0.048 0.647,-0.044 0.655,-0.037C0.656,-0.035 0.656,-0.033 0.655,-0.03C0.654,-0.027 0.652,-0.023 0.651,-0.019C0.65,-0.015 0.649,-0.012 0.648,-0.011C0.641,-0.001 0.627,0.007 0.604,0.013C0.596,0.013 0.591,0.014 0.588,0.015C0.584,0.016 0.58,0.015 0.574,0.013C0.567,0.01 0.563,0.009 0.561,0.008C0.558,0.007 0.554,0.004 0.547,-0C0.54,-0.004 0.535,-0.007 0.532,-0.009L0.528,-0.011C0.511,-0.025 0.489,-0.049 0.46,-0.084C0.431,-0.118 0.413,-0.138 0.408,-0.144ZM0.117,-0.113C0.129,-0.095 0.147,-0.086 0.171,-0.086C0.182,-0.086 0.198,-0.089 0.218,-0.094C0.251,-0.106 0.28,-0.127 0.307,-0.157C0.333,-0.193 0.348,-0.225 0.351,-0.252C0.351,-0.254 0.352,-0.262 0.355,-0.276C0.358,-0.289 0.359,-0.299 0.358,-0.304C0.345,-0.301 0.326,-0.298 0.301,-0.297C0.276,-0.295 0.256,-0.293 0.243,-0.29C0.226,-0.287 0.208,-0.279 0.19,-0.266C0.172,-0.252 0.158,-0.239 0.149,-0.227C0.14,-0.215 0.127,-0.198 0.111,-0.176C0.1,-0.162 0.102,-0.141 0.117,-0.113Z"
        style="fill: rgb(54, 54, 54); fill-rule: nonzero"
      />
    </g>
    <g transform="matrix(42.6667,0,0,42.6667,109.394,47.9996)">
      <path
        d="M0.006,-0.171L0.006,-0.178C0.013,-0.231 0.038,-0.279 0.082,-0.32C0.126,-0.361 0.174,-0.377 0.227,-0.368C0.252,-0.367 0.274,-0.357 0.294,-0.34C0.313,-0.323 0.323,-0.302 0.322,-0.279C0.322,-0.272 0.32,-0.268 0.316,-0.267C0.312,-0.265 0.306,-0.265 0.299,-0.266C0.292,-0.267 0.287,-0.267 0.284,-0.266C0.25,-0.278 0.218,-0.282 0.189,-0.279C0.121,-0.244 0.087,-0.2 0.088,-0.146C0.083,-0.124 0.087,-0.107 0.102,-0.094C0.117,-0.081 0.135,-0.075 0.157,-0.075C0.172,-0.075 0.185,-0.078 0.196,-0.083C0.267,-0.12 0.326,-0.192 0.373,-0.298C0.373,-0.313 0.373,-0.326 0.374,-0.338L0.378,-0.46C0.379,-0.472 0.379,-0.485 0.379,-0.5C0.385,-0.565 0.391,-0.607 0.398,-0.627C0.399,-0.636 0.4,-0.649 0.403,-0.665C0.406,-0.68 0.409,-0.697 0.412,-0.714C0.415,-0.731 0.416,-0.742 0.417,-0.747C0.42,-0.766 0.43,-0.779 0.449,-0.785C0.46,-0.784 0.471,-0.781 0.484,-0.775C0.497,-0.768 0.504,-0.761 0.505,-0.753C0.508,-0.745 0.511,-0.736 0.512,-0.726C0.513,-0.716 0.513,-0.707 0.512,-0.699C0.511,-0.691 0.511,-0.682 0.512,-0.671C0.511,-0.666 0.512,-0.654 0.515,-0.633C0.517,-0.612 0.518,-0.599 0.518,-0.595C0.518,-0.57 0.514,-0.522 0.505,-0.45C0.503,-0.436 0.497,-0.416 0.486,-0.39C0.475,-0.364 0.469,-0.344 0.467,-0.33L0.467,-0.266C0.468,-0.265 0.468,-0.264 0.468,-0.263L0.473,-0.251L0.474,-0.248L0.493,-0.184C0.497,-0.168 0.502,-0.153 0.508,-0.138C0.514,-0.123 0.522,-0.104 0.531,-0.083C0.54,-0.061 0.547,-0.046 0.55,-0.039C0.551,-0.018 0.547,-0.004 0.537,0.004C0.534,0.008 0.531,0.01 0.526,0.01C0.523,0.01 0.512,0.004 0.493,-0.007C0.486,-0.014 0.48,-0.022 0.474,-0.031C0.467,-0.04 0.462,-0.048 0.458,-0.055C0.454,-0.062 0.449,-0.073 0.444,-0.086C0.438,-0.098 0.434,-0.108 0.432,-0.114C0.43,-0.119 0.426,-0.129 0.421,-0.145C0.416,-0.16 0.412,-0.169 0.411,-0.172C0.402,-0.167 0.388,-0.151 0.369,-0.126C0.349,-0.1 0.338,-0.086 0.335,-0.083C0.287,-0.034 0.243,-0.002 0.202,0.011C0.161,0.016 0.137,0.019 0.128,0.019C0.095,0.019 0.069,0.01 0.05,-0.007C0.041,-0.014 0.032,-0.023 0.025,-0.033C0.014,-0.05 0.008,-0.073 0.006,-0.1C0.003,-0.127 0.003,-0.151 0.006,-0.171Z"
        style="fill: rgb(54, 54, 54); fill-rule: nonzero"
      />
    </g>
    <g transform="matrix(42.6667,0,0,42.6667,133.672,47.9996)">
      <path
        d="M0.014,-0.557C0.018,-0.567 0.025,-0.575 0.036,-0.582C0.046,-0.588 0.057,-0.59 0.068,-0.589C0.072,-0.59 0.076,-0.59 0.079,-0.589C0.082,-0.588 0.086,-0.587 0.09,-0.585C0.093,-0.583 0.096,-0.581 0.098,-0.58C0.1,-0.579 0.103,-0.576 0.107,-0.571C0.11,-0.566 0.113,-0.564 0.114,-0.563C0.115,-0.562 0.118,-0.558 0.122,-0.552L0.128,-0.544C0.131,-0.537 0.143,-0.523 0.166,-0.5C0.171,-0.493 0.173,-0.486 0.174,-0.477C0.174,-0.468 0.171,-0.46 0.166,-0.455L0.144,-0.455C0.133,-0.453 0.121,-0.454 0.11,-0.457C0.098,-0.46 0.083,-0.467 0.064,-0.477C0.045,-0.487 0.034,-0.492 0.033,-0.493C0.022,-0.5 0.014,-0.509 0.011,-0.522C0.007,-0.534 0.008,-0.546 0.014,-0.557ZM0.078,-0.05C0.077,-0.058 0.075,-0.076 0.072,-0.103C0.069,-0.13 0.067,-0.158 0.064,-0.188C0.061,-0.217 0.06,-0.235 0.059,-0.24C0.058,-0.258 0.058,-0.277 0.059,-0.297C0.069,-0.314 0.086,-0.321 0.109,-0.316C0.118,-0.312 0.126,-0.299 0.135,-0.278C0.135,-0.264 0.136,-0.249 0.139,-0.234C0.141,-0.219 0.143,-0.206 0.146,-0.195C0.148,-0.184 0.151,-0.17 0.156,-0.153C0.161,-0.136 0.164,-0.122 0.166,-0.113C0.166,-0.108 0.166,-0.099 0.165,-0.088L0.16,-0.037L0.155,-0.013C0.154,-0.01 0.152,-0.006 0.15,-0.003C0.147,0.001 0.144,0.004 0.141,0.006C0.123,0.009 0.108,0.005 0.097,-0.006C0.086,-0.026 0.079,-0.041 0.078,-0.05Z"
        style="fill: rgb(54, 54, 54); fill-rule: nonzero"
      />
    </g>
    <g transform="matrix(42.6667,0,0,42.6667,143.016,47.9996)">
      <path
        d="M0.276,-0.272C0.232,-0.235 0.192,-0.188 0.156,-0.133C0.155,-0.13 0.146,-0.116 0.131,-0.09C0.115,-0.063 0.104,-0.044 0.099,-0.032C0.092,-0.02 0.081,-0.016 0.067,-0.019L0.023,-0.064L0.023,-0.095C0.026,-0.112 0.03,-0.146 0.034,-0.196C0.038,-0.246 0.041,-0.276 0.042,-0.285C0.042,-0.288 0.042,-0.291 0.041,-0.294L0.037,-0.32C0.036,-0.323 0.036,-0.326 0.036,-0.329L0.036,-0.333C0.036,-0.344 0.04,-0.352 0.047,-0.359C0.054,-0.366 0.062,-0.369 0.073,-0.368C0.094,-0.368 0.109,-0.361 0.118,-0.348C0.123,-0.33 0.125,-0.307 0.125,-0.278C0.125,-0.272 0.125,-0.265 0.125,-0.256C0.124,-0.247 0.124,-0.242 0.124,-0.241C0.129,-0.245 0.14,-0.255 0.157,-0.272C0.173,-0.288 0.183,-0.299 0.187,-0.304C0.192,-0.31 0.198,-0.318 0.205,-0.329C0.212,-0.339 0.218,-0.348 0.225,-0.356C0.232,-0.363 0.24,-0.371 0.249,-0.378C0.252,-0.383 0.256,-0.386 0.261,-0.389C0.266,-0.391 0.27,-0.392 0.275,-0.393C0.279,-0.393 0.284,-0.393 0.289,-0.393L0.305,-0.393C0.312,-0.396 0.32,-0.395 0.328,-0.392C0.335,-0.388 0.343,-0.381 0.352,-0.37C0.361,-0.359 0.366,-0.351 0.369,-0.347C0.371,-0.343 0.376,-0.335 0.384,-0.322C0.405,-0.274 0.415,-0.222 0.415,-0.165L0.434,-0.083C0.434,-0.081 0.436,-0.074 0.441,-0.063C0.445,-0.052 0.447,-0.046 0.447,-0.045C0.448,-0.027 0.444,-0.014 0.434,-0.007C0.432,-0.006 0.427,-0.005 0.42,-0.002C0.412,0.002 0.406,0.003 0.402,0.003C0.395,0.003 0.391,-0 0.39,-0.007C0.389,-0.009 0.384,-0.017 0.377,-0.03C0.369,-0.043 0.363,-0.052 0.358,-0.057C0.345,-0.101 0.337,-0.143 0.333,-0.184C0.331,-0.189 0.328,-0.199 0.325,-0.215C0.321,-0.23 0.317,-0.241 0.314,-0.247C0.3,-0.263 0.291,-0.272 0.286,-0.273C0.281,-0.273 0.277,-0.273 0.276,-0.272Z"
        style="fill: rgb(54, 54, 54); fill-rule: nonzero"
      />
    </g>
    <g transform="matrix(42.6667,0,0,42.6667,162.941,47.9996)">
      <path
        d="M0.408,-0.144C0.403,-0.14 0.396,-0.132 0.389,-0.119C0.354,-0.08 0.319,-0.049 0.286,-0.027C0.252,-0.003 0.215,0.008 0.176,0.007C0.155,0.01 0.134,0.007 0.112,-0.002C0.09,-0.01 0.073,-0.022 0.06,-0.037C0.054,-0.046 0.05,-0.053 0.048,-0.057C0.045,-0.06 0.042,-0.066 0.037,-0.075C0.032,-0.083 0.029,-0.09 0.028,-0.095C0.026,-0.1 0.024,-0.107 0.022,-0.114C0.02,-0.121 0.019,-0.129 0.019,-0.136C0.019,-0.142 0.02,-0.15 0.022,-0.157C0.023,-0.18 0.03,-0.203 0.045,-0.226C0.059,-0.249 0.073,-0.268 0.088,-0.282C0.103,-0.296 0.122,-0.313 0.145,-0.332C0.15,-0.335 0.153,-0.338 0.155,-0.34C0.183,-0.363 0.221,-0.374 0.269,-0.374C0.279,-0.374 0.311,-0.371 0.364,-0.366C0.365,-0.365 0.37,-0.362 0.378,-0.359C0.385,-0.356 0.391,-0.352 0.394,-0.349C0.397,-0.345 0.398,-0.34 0.395,-0.334L0.408,-0.321C0.428,-0.312 0.441,-0.304 0.446,-0.296C0.479,-0.228 0.509,-0.173 0.534,-0.132C0.537,-0.129 0.545,-0.121 0.56,-0.11C0.574,-0.098 0.582,-0.09 0.585,-0.087C0.59,-0.083 0.597,-0.078 0.605,-0.071C0.612,-0.064 0.619,-0.058 0.624,-0.055C0.629,-0.052 0.635,-0.05 0.642,-0.049C0.643,-0.048 0.647,-0.044 0.655,-0.037C0.656,-0.035 0.656,-0.033 0.655,-0.03C0.654,-0.027 0.652,-0.023 0.651,-0.019C0.65,-0.015 0.649,-0.012 0.648,-0.011C0.641,-0.001 0.627,0.007 0.604,0.013C0.596,0.013 0.591,0.014 0.588,0.015C0.584,0.016 0.58,0.015 0.574,0.013C0.567,0.01 0.563,0.009 0.561,0.008C0.558,0.007 0.554,0.004 0.547,-0C0.54,-0.004 0.535,-0.007 0.532,-0.009L0.528,-0.011C0.511,-0.025 0.489,-0.049 0.46,-0.084C0.431,-0.118 0.413,-0.138 0.408,-0.144ZM0.117,-0.113C0.129,-0.095 0.147,-0.086 0.171,-0.086C0.182,-0.086 0.198,-0.089 0.218,-0.094C0.251,-0.106 0.28,-0.127 0.307,-0.157C0.333,-0.193 0.348,-0.225 0.351,-0.252C0.351,-0.254 0.352,-0.262 0.355,-0.276C0.358,-0.289 0.359,-0.299 0.358,-0.304C0.345,-0.301 0.326,-0.298 0.301,-0.297C0.276,-0.295 0.256,-0.293 0.243,-0.29C0.226,-0.287 0.208,-0.279 0.19,-0.266C0.172,-0.252 0.158,-0.239 0.149,-0.227C0.14,-0.215 0.127,-0.198 0.111,-0.176C0.1,-0.162 0.102,-0.141 0.117,-0.113Z"
        style="fill: rgb(54, 54, 54); fill-rule: nonzero"
      />
    </g>
    <g transform="matrix(42.6667,0,0,42.6667,191.4,47.9996)">
      <path
        d="M0.069,-0.025C0.07,-0.051 0.073,-0.068 0.076,-0.076C0.087,-0.088 0.106,-0.103 0.133,-0.12C0.17,-0.123 0.193,-0.116 0.203,-0.101C0.205,-0.096 0.208,-0.091 0.211,-0.084C0.214,-0.077 0.217,-0.071 0.219,-0.066C0.22,-0.061 0.221,-0.054 0.222,-0.046C0.226,-0.025 0.215,-0.003 0.19,0.018C0.171,0.031 0.154,0.038 0.14,0.038C0.123,0.039 0.106,0.034 0.089,0.024C0.074,0.015 0.067,-0.002 0.069,-0.025Z"
        style="fill: rgb(54, 54, 54); fill-rule: nonzero"
      />
    </g>
    <g transform="matrix(42.6667,0,0,42.6667,203.09,47.9996)">
      <path
        d="M0.024,-0.311C0.032,-0.35 0.036,-0.373 0.037,-0.38C0.038,-0.399 0.043,-0.448 0.05,-0.528C0.057,-0.607 0.061,-0.668 0.062,-0.709C0.063,-0.713 0.065,-0.717 0.068,-0.721C0.07,-0.724 0.073,-0.728 0.078,-0.733C0.083,-0.737 0.086,-0.74 0.087,-0.741C0.094,-0.746 0.1,-0.749 0.107,-0.749C0.126,-0.749 0.14,-0.738 0.151,-0.716C0.15,-0.691 0.147,-0.655 0.142,-0.61C0.137,-0.565 0.133,-0.532 0.132,-0.513C0.121,-0.42 0.118,-0.352 0.124,-0.307L0.126,-0.308L0.133,-0.308L0.165,-0.314C0.168,-0.315 0.171,-0.315 0.174,-0.315C0.229,-0.32 0.262,-0.322 0.273,-0.322C0.321,-0.322 0.364,-0.313 0.403,-0.295C0.426,-0.284 0.445,-0.266 0.461,-0.239C0.476,-0.212 0.483,-0.186 0.481,-0.163C0.484,-0.146 0.481,-0.13 0.473,-0.114C0.465,-0.097 0.457,-0.085 0.449,-0.076C0.44,-0.067 0.427,-0.055 0.41,-0.039C0.359,-0.004 0.301,0.013 0.236,0.012C0.199,0.015 0.157,0.003 0.109,-0.025C0.059,-0.056 0.031,-0.103 0.024,-0.165C0.023,-0.214 0.023,-0.262 0.024,-0.311ZM0.131,-0.173C0.132,-0.166 0.131,-0.162 0.13,-0.159C0.129,-0.156 0.13,-0.151 0.134,-0.145C0.138,-0.138 0.141,-0.134 0.142,-0.132C0.143,-0.129 0.146,-0.125 0.151,-0.12C0.156,-0.114 0.16,-0.11 0.162,-0.108C0.163,-0.106 0.167,-0.102 0.173,-0.098C0.178,-0.092 0.181,-0.09 0.182,-0.089C0.214,-0.082 0.248,-0.08 0.283,-0.083C0.338,-0.095 0.37,-0.118 0.378,-0.153C0.383,-0.17 0.379,-0.188 0.364,-0.206C0.349,-0.223 0.333,-0.235 0.315,-0.241C0.303,-0.244 0.291,-0.246 0.278,-0.246C0.233,-0.246 0.191,-0.234 0.151,-0.21C0.144,-0.205 0.14,-0.201 0.138,-0.199C0.135,-0.197 0.133,-0.194 0.132,-0.189C0.13,-0.184 0.13,-0.179 0.131,-0.173Z"
        style="fill: rgb(54, 54, 54); fill-rule: nonzero"
      />
    </g>
    <g transform="matrix(42.6667,0,0,42.6667,224.765,47.9996)">
      <path
        d="M0.076,-0.177C0.077,-0.217 0.079,-0.271 0.083,-0.339C0.087,-0.406 0.089,-0.453 0.09,-0.48C0.089,-0.513 0.091,-0.574 0.094,-0.663C0.097,-0.752 0.098,-0.818 0.096,-0.859C0.101,-0.876 0.111,-0.885 0.126,-0.885C0.145,-0.885 0.16,-0.874 0.172,-0.853C0.172,-0.844 0.172,-0.836 0.173,-0.829L0.177,-0.757C0.178,-0.75 0.178,-0.742 0.178,-0.733C0.177,-0.67 0.172,-0.579 0.166,-0.458C0.159,-0.337 0.154,-0.252 0.153,-0.202C0.154,-0.193 0.155,-0.178 0.156,-0.159C0.157,-0.14 0.159,-0.126 0.16,-0.117C0.161,-0.108 0.162,-0.096 0.165,-0.083C0.167,-0.069 0.17,-0.056 0.175,-0.046C0.179,-0.035 0.184,-0.024 0.191,-0.013C0.192,-0.004 0.189,0.005 0.184,0.012C0.175,0.017 0.164,0.02 0.151,0.02C0.136,0.02 0.124,0.017 0.115,0.012C0.104,0 0.095,-0.015 0.089,-0.033C0.083,-0.051 0.079,-0.065 0.078,-0.075C0.077,-0.085 0.076,-0.103 0.076,-0.131L0.076,-0.177Z"
        style="fill: rgb(54, 54, 54); fill-rule: nonzero"
      />
    </g>
    <g transform="matrix(42.6667,0,0,42.6667,235.986,47.9996)">
      <path
        d="M0.029,-0.133L0.029,-0.241C0.024,-0.248 0.022,-0.259 0.022,-0.273C0.022,-0.287 0.024,-0.297 0.029,-0.304C0.039,-0.311 0.051,-0.319 0.064,-0.327C0.077,-0.335 0.092,-0.344 0.108,-0.353C0.124,-0.362 0.136,-0.369 0.143,-0.374C0.171,-0.391 0.206,-0.399 0.248,-0.399C0.297,-0.399 0.345,-0.388 0.391,-0.367C0.436,-0.346 0.474,-0.316 0.504,-0.279C0.539,-0.232 0.547,-0.187 0.529,-0.146C0.486,-0.073 0.423,-0.026 0.339,-0.007C0.328,-0.003 0.317,0 0.304,0.002C0.291,0.004 0.28,0.005 0.272,0.006C0.264,0.006 0.251,0.006 0.234,0.006C0.217,0.005 0.205,0.005 0.2,0.005C0.166,-0.002 0.142,-0.008 0.13,-0.011C0.117,-0.014 0.103,-0.021 0.088,-0.032C0.073,-0.042 0.063,-0.054 0.056,-0.068C0.048,-0.082 0.04,-0.104 0.029,-0.133ZM0.124,-0.133C0.129,-0.124 0.136,-0.114 0.147,-0.103C0.158,-0.092 0.167,-0.085 0.175,-0.083C0.19,-0.075 0.212,-0.071 0.241,-0.071C0.268,-0.071 0.296,-0.075 0.325,-0.083C0.354,-0.09 0.38,-0.103 0.405,-0.123C0.43,-0.141 0.444,-0.164 0.447,-0.19C0.448,-0.198 0.448,-0.204 0.448,-0.209C0.448,-0.214 0.446,-0.219 0.442,-0.226C0.437,-0.232 0.433,-0.237 0.43,-0.24C0.427,-0.243 0.422,-0.248 0.416,-0.253C0.41,-0.258 0.406,-0.263 0.403,-0.266C0.346,-0.297 0.303,-0.313 0.274,-0.313C0.259,-0.313 0.245,-0.31 0.232,-0.304C0.226,-0.302 0.22,-0.298 0.213,-0.291C0.194,-0.273 0.181,-0.263 0.175,-0.26C0.173,-0.258 0.169,-0.254 0.164,-0.249C0.158,-0.244 0.153,-0.239 0.149,-0.236C0.145,-0.232 0.141,-0.228 0.138,-0.223C0.134,-0.218 0.132,-0.213 0.131,-0.209C0.127,-0.202 0.125,-0.193 0.124,-0.184C0.123,-0.175 0.124,-0.166 0.125,-0.159C0.126,-0.151 0.125,-0.142 0.124,-0.133Z"
        style="fill: rgb(54, 54, 54); fill-rule: nonzero"
      />
    </g>
    <g transform="matrix(42.6667,0,0,42.6667,259.624,47.9996)">
      <path
        d="M0.077,0.221C0.092,0.209 0.108,0.203 0.123,0.203C0.135,0.203 0.145,0.207 0.153,0.215C0.156,0.218 0.165,0.229 0.179,0.246C0.193,0.263 0.205,0.275 0.216,0.283C0.227,0.291 0.238,0.296 0.251,0.298C0.253,0.298 0.254,0.298 0.255,0.297C0.269,0.29 0.279,0.279 0.285,0.262C0.291,0.245 0.295,0.224 0.298,0.199C0.3,0.174 0.302,0.156 0.305,0.146C0.308,0.129 0.312,0.1 0.317,0.061C0.322,0.022 0.326,-0.007 0.329,-0.024L0.318,-0.024C0.283,-0.016 0.249,-0.012 0.216,-0.012C0.184,-0.012 0.15,-0.016 0.115,-0.024C0.088,-0.04 0.064,-0.06 0.045,-0.085C0.025,-0.109 0.015,-0.135 0.014,-0.164C0.017,-0.193 0.032,-0.223 0.06,-0.252C0.088,-0.28 0.117,-0.302 0.147,-0.315C0.172,-0.336 0.202,-0.346 0.239,-0.346C0.286,-0.346 0.321,-0.33 0.343,-0.297C0.343,-0.293 0.343,-0.287 0.344,-0.279C0.344,-0.27 0.344,-0.264 0.344,-0.26C0.343,-0.255 0.341,-0.251 0.337,-0.247C0.333,-0.243 0.327,-0.241 0.318,-0.24C0.31,-0.245 0.288,-0.249 0.253,-0.253C0.211,-0.256 0.169,-0.232 0.128,-0.183C0.125,-0.18 0.122,-0.176 0.121,-0.172C0.12,-0.168 0.12,-0.164 0.121,-0.16C0.122,-0.156 0.124,-0.152 0.126,-0.149C0.127,-0.146 0.13,-0.142 0.134,-0.139C0.137,-0.135 0.14,-0.132 0.143,-0.13L0.16,-0.113C0.18,-0.105 0.202,-0.101 0.226,-0.101C0.247,-0.101 0.269,-0.105 0.292,-0.112C0.314,-0.118 0.334,-0.13 0.352,-0.146C0.37,-0.162 0.38,-0.181 0.381,-0.202C0.387,-0.231 0.404,-0.25 0.432,-0.259L0.435,-0.259C0.436,-0.258 0.44,-0.257 0.445,-0.256C0.45,-0.255 0.453,-0.254 0.454,-0.254C0.455,-0.253 0.458,-0.252 0.462,-0.251C0.466,-0.25 0.469,-0.249 0.471,-0.248C0.472,-0.247 0.475,-0.246 0.478,-0.245C0.481,-0.243 0.483,-0.241 0.484,-0.24C0.485,-0.238 0.486,-0.236 0.488,-0.234C0.489,-0.231 0.49,-0.229 0.49,-0.227L0.49,-0.218C0.49,-0.215 0.49,-0.211 0.489,-0.208C0.49,-0.188 0.482,-0.161 0.463,-0.126C0.444,-0.09 0.432,-0.066 0.429,-0.051C0.4,0.044 0.379,0.137 0.368,0.228C0.363,0.285 0.353,0.327 0.337,0.354C0.317,0.384 0.301,0.403 0.288,0.412C0.278,0.418 0.267,0.422 0.255,0.424C0.222,0.411 0.181,0.385 0.134,0.348C0.119,0.341 0.108,0.335 0.101,0.33C0.093,0.325 0.085,0.318 0.076,0.309C0.067,0.3 0.061,0.289 0.058,0.278C0.057,0.25 0.063,0.231 0.077,0.221Z"
        style="fill: rgb(54, 54, 54); fill-rule: nonzero"
      />
    </g>
  </g>
</svg>
