<svg width="360" height="140" viewBox="0 0 360 140" fill="none" xmlns="http://www.w3.org/2000/svg">
<path d="M70.0356 66.2334L56.8374 63.8525C58.3211 58.5387 60.8745 54.6051 64.4976 52.0518C68.1206 49.4984 73.5034 48.2217 80.646 48.2217C87.133 48.2217 91.9637 48.998 95.1382 50.5508C98.3127 52.069 100.538 54.0186 101.815 56.3994C103.126 58.7458 103.782 63.0762 103.782 69.3906L103.626 86.3672C103.626 91.1979 103.851 94.7692 104.299 97.0811C104.782 99.3584 105.662 101.808 106.939 104.431H92.5503C92.1707 103.465 91.7049 102.033 91.1528 100.135C90.9113 99.2721 90.7388 98.7028 90.6353 98.4268C88.1509 100.842 85.494 102.654 82.6646 103.861C79.8351 105.069 76.8159 105.673 73.6069 105.673C67.9481 105.673 63.4797 104.137 60.2017 101.066C56.9582 97.9954 55.3364 94.1136 55.3364 89.4209C55.3364 86.3154 56.0783 83.555 57.562 81.1396C59.0457 78.6898 61.116 76.8265 63.7729 75.5498C66.4644 74.2386 70.3289 73.0999 75.3667 72.1338C82.1642 70.8571 86.8742 69.6667 89.4966 68.5625V67.1133C89.4966 64.3184 88.8065 62.3343 87.4263 61.1611C86.0461 59.9535 83.4409 59.3496 79.6108 59.3496C77.0229 59.3496 75.0044 59.8672 73.5552 60.9023C72.106 61.903 70.9328 63.68 70.0356 66.2334ZM89.4966 78.0342C87.6333 78.6553 84.6831 79.3971 80.646 80.2598C76.6089 81.1224 73.9692 81.9678 72.7271 82.7959C70.8293 84.1416 69.8804 85.8496 69.8804 87.9199C69.8804 89.9557 70.6395 91.7155 72.1577 93.1992C73.6759 94.6829 75.6082 95.4248 77.9546 95.4248C80.577 95.4248 83.0786 94.5622 85.4595 92.8369C87.2192 91.5257 88.3752 89.9212 88.9272 88.0234C89.3068 86.7812 89.4966 84.4176 89.4966 80.9326V78.0342Z" fill="#363636"/>
<path d="M168.583 104.431H155.074V96.3564C152.831 99.4964 150.174 101.843 147.103 103.396C144.067 104.914 140.996 105.673 137.89 105.673C131.576 105.673 126.158 103.137 121.638 98.0645C117.153 92.9577 114.91 85.8496 114.91 76.7402C114.91 67.4238 117.101 60.3503 121.483 55.5195C125.865 50.6543 131.403 48.2217 138.097 48.2217C144.239 48.2217 149.553 50.7751 154.039 55.8818V28.5537H168.583V104.431ZM129.764 75.7568C129.764 81.6227 130.575 85.8669 132.197 88.4893C134.543 92.2848 137.821 94.1826 142.031 94.1826C145.378 94.1826 148.224 92.7679 150.571 89.9385C152.917 87.0745 154.09 82.8132 154.09 77.1543C154.09 70.8398 152.952 66.3024 150.674 63.542C148.397 60.7471 145.481 59.3496 141.927 59.3496C138.477 59.3496 135.578 60.7298 133.232 63.4902C130.92 66.2161 129.764 70.305 129.764 75.7568Z" fill="#363636"/>
<path d="M182.971 104.431V76.9473V49.4639H197.515V104.431H182.971Z" fill="#363636"/>
<path d="M262.471 104.431H247.927V76.3779C247.927 70.443 247.617 66.613 246.996 64.8877C246.375 63.1279 245.357 61.765 243.942 60.7988C242.562 59.8327 240.888 59.3496 238.921 59.3496C236.403 59.3496 234.142 60.0397 232.141 61.4199C230.14 62.8001 228.76 64.6289 228 66.9062C227.276 69.1836 226.914 73.3932 226.914 79.5352V104.431H212.37V49.4639H225.878V57.5381C230.675 51.3271 236.713 48.2217 243.994 48.2217C247.203 48.2217 250.136 48.8083 252.792 49.9814C255.449 51.1201 257.451 52.5866 258.796 54.3809C260.177 56.1751 261.125 58.2109 261.643 60.4883C262.195 62.7656 262.471 66.0264 262.471 70.2705V104.431Z" fill="#363636"/>
<path d="M288.143 66.2334L274.945 63.8525C276.429 58.5387 278.982 54.6051 282.605 52.0518C286.228 49.4984 291.611 48.2217 298.753 48.2217C305.24 48.2217 310.071 48.998 313.246 50.5508C316.42 52.069 318.646 54.0186 319.922 56.3994C321.234 58.7458 321.889 63.0762 321.889 69.3906L321.734 86.3672C321.734 91.1979 321.958 94.7692 322.407 97.0811C322.89 99.3584 323.77 101.808 325.046 104.431H310.658C310.278 103.465 309.812 102.033 309.26 100.135C309.019 99.2721 308.846 98.7028 308.743 98.4268C306.258 100.842 303.601 102.654 300.772 103.861C297.943 105.069 294.923 105.673 291.714 105.673C286.055 105.673 281.587 104.137 278.309 101.066C275.066 97.9954 273.444 94.1136 273.444 89.4209C273.444 86.3154 274.186 83.555 275.669 81.1396C277.153 78.6898 279.223 76.8265 281.88 75.5498C284.572 74.2386 288.436 73.0999 293.474 72.1338C300.272 70.8571 304.982 69.6667 307.604 68.5625V67.1133C307.604 64.3184 306.914 62.3343 305.534 61.1611C304.153 59.9535 301.548 59.3496 297.718 59.3496C295.13 59.3496 293.112 59.8672 291.663 60.9023C290.213 61.903 289.04 63.68 288.143 66.2334ZM307.604 78.0342C305.741 78.6553 302.791 79.3971 298.753 80.2598C294.716 81.1224 292.077 81.9678 290.834 82.7959C288.937 84.1416 287.988 85.8496 287.988 87.9199C287.988 89.9557 288.747 91.7155 290.265 93.1992C291.783 94.6829 293.716 95.4248 296.062 95.4248C298.684 95.4248 301.186 94.5622 303.567 92.8369C305.327 91.5257 306.483 89.9212 307.035 88.0234C307.414 86.7812 307.604 84.4176 307.604 80.9326V78.0342Z" fill="#363636"/>
<path d="M46.6395 132.327L45.6607 132.38C45.0082 132.42 44.1783 132.473 43.171 132.539C42.1637 132.609 41.1849 132.557 40.2346 132.38C39.2843 132.204 38.2529 131.818 37.1406 131.224C36.0238 130.633 35.045 129.952 34.2041 129.181C33.3633 128.414 32.6319 127.612 32.0101 126.775C31.3882 125.938 30.8145 124.986 30.2889 123.92C29.7634 122.858 29.2861 121.745 28.8569 120.582C28.4277 119.414 28.0883 118.264 27.8387 117.132C27.5847 115.995 27.4292 114.93 27.3722 113.939C27.3197 112.948 27.2825 111.786 27.2606 110.456C27.2431 109.125 27.2277 107.86 27.2146 106.662C27.2015 105.467 27.2168 104.183 27.2606 102.808C27.3087 101.429 27.5124 100.129 27.8715 98.9084C28.2306 97.6877 28.651 96.4341 29.1328 95.1474C29.6101 93.8563 30.0503 92.6996 30.4532 91.6772C30.8561 90.6593 31.2568 89.6833 31.6553 88.7491C32.0495 87.8193 32.4349 86.916 32.8115 86.0391C33.1881 85.1622 33.4903 84.1817 33.718 83.0977C33.9458 82.0137 33.7268 81.0906 33.0611 80.3282C32.3911 79.5703 31.5327 79.0878 30.486 78.8807C29.4393 78.6692 28.4189 78.5678 27.4248 78.5766C26.4351 78.5855 25.3358 78.5921 24.1271 78.5965C22.9184 78.6009 21.7491 78.5877 20.6192 78.5568C19.4893 78.526 18.4032 78.3651 17.3609 78.0743C16.323 77.7835 15.2303 77.2547 14.0829 76.4879C12.9355 75.7212 12.1888 74.8333 11.8428 73.8242C11.4968 72.8151 11.4662 71.502 11.7508 69.8848C12.0399 68.2632 12.5873 67.0249 13.3931 66.1701C14.1989 65.3152 15.0376 64.6168 15.9091 64.0748C16.7806 63.5372 17.6872 62.9445 18.6287 62.2967C19.5747 61.6534 20.5009 61.0981 21.4075 60.6311C22.314 60.164 23.2315 59.7079 24.1599 59.2628C25.084 58.8178 25.9665 58.3287 26.8073 57.7955C27.6482 57.2623 28.3554 56.5418 28.9291 55.6341C29.5028 54.7307 29.8313 53.6533 29.9145 52.4019C30.0021 51.146 30.0634 49.8615 30.0984 48.5484C30.1335 47.2352 30.1006 46.0851 29.9999 45.0981C29.8948 44.111 29.77 43.027 29.6255 41.846C29.4766 40.6607 29.3583 39.5304 29.2707 38.4552C29.1831 37.3844 29.1328 36.3159 29.1196 35.2495C29.1021 34.1875 29.0977 33.077 29.1065 31.9181C29.1109 30.7636 29.2926 29.2742 29.6517 27.4499C30.0108 25.6256 30.4094 24.2354 30.8473 23.2791C31.2853 22.3273 31.7298 21.4372 32.1809 20.6088C32.6319 19.7759 33.3151 18.6501 34.2304 17.2312C35.1413 15.8123 36.0128 14.6049 36.8449 13.609C37.6727 12.6131 38.4653 11.7847 39.223 11.1237C39.985 10.4583 40.8017 9.8833 41.6733 9.39858C42.5448 8.91386 43.5323 8.51066 44.6359 8.18899C45.7396 7.86731 46.8629 7.66681 48.0059 7.58749C49.1533 7.50818 50.627 7.4575 52.4269 7.43547C54.2225 7.41785 55.3699 7.44869 55.8692 7.52801C56.2487 7.59166 56.613 7.69987 56.9622 7.85265C57.0195 7.87769 57.0763 7.90394 57.1327 7.93138C57.219 7.97333 57.3038 8.01778 57.3871 8.06475C57.7939 8.29379 58.1594 8.57756 58.4837 8.91606C58.7085 9.15661 58.9047 9.4167 59.0722 9.69633C59.0775 9.70501 59.0828 9.71372 59.088 9.72245C59.2856 10.0526 59.4396 10.4021 59.5501 10.771C59.5814 10.8744 59.6089 10.979 59.6326 11.0848C59.6351 11.0955 59.6375 11.1063 59.6398 11.1171C59.7493 11.6151 59.7778 12.1152 59.7252 12.6175C59.6874 12.9545 59.6156 13.2818 59.51 13.5993C59.4888 13.6633 59.4661 13.7268 59.4421 13.7898C59.406 13.8847 59.3668 13.9786 59.3245 14.0717C59.2058 14.3277 59.067 14.5688 58.9081 14.7951C58.6848 15.1171 58.4229 15.407 58.1224 15.6647C57.737 15.9951 57.31 16.2529 56.8414 16.438C56.5551 16.5537 56.2615 16.6391 55.9606 16.694C55.9324 16.6992 55.9041 16.7042 55.8757 16.709L55.1268 16.8346H52.5714C50.8679 16.8346 49.3876 16.9117 48.1307 17.0659C46.8826 17.2202 45.8687 17.5969 45.0892 18.1962C44.314 18.7955 43.6068 19.5314 42.9674 20.4039C42.3236 21.2808 41.6492 22.3846 40.9441 23.7154C40.239 25.0461 39.6916 26.2051 39.3018 27.1921C38.912 28.1792 38.6974 29.2169 38.658 30.3053C38.6186 31.3938 38.6055 32.4557 38.6186 33.4913C38.6274 34.5268 38.6712 35.6813 38.75 36.9548C38.8332 38.2239 38.9493 39.396 39.0982 40.4712C39.2514 41.5464 39.4179 42.8375 39.5974 44.3445C39.7813 45.856 39.8821 47.2991 39.8996 48.674C39.9171 50.0532 39.904 51.4655 39.8602 52.9108C39.8164 54.3606 39.6587 55.6869 39.3872 56.8899C39.1157 58.0973 38.6843 59.2915 38.0931 60.4724C37.4975 61.6578 36.8099 62.6184 36.0304 63.3543C35.2508 64.0902 34.4231 64.7842 33.5472 65.4364C32.6714 66.0841 31.7933 66.6548 30.913 67.1483C30.0327 67.6418 29.1065 68.1288 28.1343 68.6091C27.9369 68.7066 27.6792 68.7327 28.5941 68.7413C29.5401 68.7501 30.5583 68.7963 31.6488 68.8801C32.7436 68.9594 33.7618 69.2106 34.7034 69.6336C35.645 70.0566 36.5231 70.5634 37.3376 71.1538C38.1522 71.7399 38.9755 72.4802 39.8076 73.3747C40.6441 74.2693 41.3952 75.2695 42.0608 76.3756C42.7265 77.486 43.1535 78.8763 43.3418 80.5464C43.5345 82.2208 43.5192 83.556 43.2958 84.5519C43.0769 85.5522 42.7221 86.6758 42.2316 87.9229C41.7411 89.1743 41.3032 90.2451 40.9178 91.1352C40.5324 92.0254 40.077 93.1182 39.5514 94.4137C39.0259 95.7136 38.5113 97.0312 38.0077 98.3664C37.5084 99.7015 37.1406 100.933 36.9041 102.061C36.6676 103.194 36.5428 104.322 36.5296 105.445C36.5165 106.569 36.5055 107.779 36.4968 109.074C36.4836 110.37 36.4771 111.526 36.4771 112.544C36.4727 113.558 36.5647 114.571 36.753 115.585C36.9413 116.598 37.1909 117.568 37.5019 118.493C37.8172 119.419 38.2004 120.331 38.6515 121.23C39.0982 122.129 39.6894 122.972 40.4251 123.761C41.1565 124.546 42.0477 125.008 43.0988 125.149C44.1542 125.286 45.0082 125.374 45.6607 125.414C46.3133 125.449 46.7753 125.484 47.0468 125.519C47.3183 125.55 47.5811 125.616 47.8351 125.718C48.0935 125.815 48.3344 125.94 48.5577 126.094C48.7854 126.253 48.9891 126.436 49.1686 126.643C49.3526 126.85 49.508 127.075 49.635 127.317C49.762 127.56 49.8584 127.815 49.9241 128.084C49.9898 128.353 50.0226 128.624 50.0226 128.897C50.0226 129.17 49.9898 129.441 49.9241 129.71C49.8584 129.979 49.762 130.234 49.635 130.477C49.508 130.719 49.3526 130.944 49.1686 131.151C48.9891 131.358 48.7854 131.541 48.5577 131.7C48.3344 131.854 48.0935 131.979 47.8351 132.076C47.5811 132.178 47.3183 132.244 47.0468 132.275L46.6395 132.327Z" fill="#657153"/>
<path d="M183.77 30.5757C183.77 30.5757 184.038 30.3728 184.574 29.967C185.108 29.5612 185.744 29.2019 186.48 28.8892C187.219 28.5783 188.283 28.3622 189.674 28.241C191.063 28.1215 192.138 28.1795 192.899 28.4149C193.659 28.6485 194.563 29.1554 195.612 29.9353C196.661 30.7136 197.487 31.4795 198.089 32.2331C198.692 32.985 199.219 33.8695 199.67 34.8866C200.122 35.902 200.39 36.8603 200.477 37.7615C200.565 38.6627 200.42 39.7431 200.043 41.0026C199.664 42.2622 199.022 43.2284 198.116 43.9012C197.208 44.5758 196.214 45.0343 195.134 45.2767C194.053 45.5192 192.944 45.6237 191.805 45.5903C190.665 45.5569 189.556 45.3918 188.479 45.0949C187.402 44.798 186.457 44.4757 185.645 44.1278C184.834 43.78 184.084 43.3847 183.395 42.9421C182.704 42.4976 181.98 41.8424 181.222 40.9763C180.464 40.1085 179.972 39.2714 179.746 38.4651C179.521 37.657 179.498 36.6231 179.678 35.3636C179.857 34.104 180.468 32.8743 181.51 31.6745C182.552 30.4729 183.254 29.7737 183.617 29.577C183.978 29.3802 184.362 29.2458 184.767 29.1738C185.174 29.1035 185.58 29.0991 185.986 29.1606C186.393 29.2221 186.78 29.3468 187.147 29.5348C187.513 29.7228 187.84 29.9643 188.127 30.2594C188.415 30.5546 188.647 30.8875 188.825 31.2581C189.002 31.6306 189.114 32.0206 189.164 32.4281C189.213 32.8339 189.196 33.238 189.114 33.6402C189.029 34.0425 188.883 34.4211 188.675 34.776C188.465 35.1308 188.205 35.4426 187.895 35.7114C187.583 35.9819 187.236 36.1954 186.856 36.3517C186.475 36.5081 186.078 36.5994 185.666 36.6258C185.257 36.6539 184.853 36.6152 184.455 36.5098C184.055 36.4044 183.683 36.2384 183.339 36.0118C182.996 35.7852 182.697 35.5094 182.443 35.1844C182.191 34.8594 181.996 34.5037 181.859 34.1172C181.723 33.729 181.654 33.3293 181.65 32.9182C181.645 32.5089 181.706 32.1084 181.832 31.7166C181.959 31.3267 182.146 30.9665 182.393 30.6363C182.638 30.306 182.93 30.024 183.268 29.7904C183.606 29.555 183.974 29.3802 184.37 29.266C184.767 29.1518 185.171 29.1035 185.581 29.1211C185.992 29.1387 186.39 29.2212 186.776 29.3688C187.161 29.5164 187.511 29.721 187.829 29.9828C188.146 30.2463 188.413 30.5528 188.63 30.9024C188.846 31.252 189.002 31.6271 189.095 32.0276C189.187 32.4281 189.213 32.8322 189.174 33.2397C189.134 33.649 189.029 34.0408 188.86 34.415C188.691 34.7891 188.467 35.1273 188.188 35.4295C187.908 35.7316 187.768 35.8827 187.768 35.8827C187.768 35.8827 187.562 35.8888 187.152 35.9064C186.743 35.924 186.843 36.1655 187.453 36.6311C188.065 37.0966 188.794 37.4857 189.64 37.7984C190.487 38.1093 191.356 38.3254 192.246 38.4466C193.137 38.5696 193.498 38.2587 193.33 37.5138C193.163 36.7707 192.773 36.0347 192.159 35.3056C191.546 34.5748 190.813 34.1919 189.96 34.1567C189.108 34.1198 188.414 34.2806 187.876 34.6389C187.339 34.9973 186.969 35.231 186.768 35.3399C186.569 35.4488 186.36 35.5322 186.139 35.5902C185.919 35.6482 185.694 35.6789 185.465 35.6824C185.239 35.6859 185.016 35.6622 184.794 35.6113C184.571 35.5603 184.358 35.4839 184.154 35.382C183.949 35.2801 183.761 35.1554 183.588 35.0079C183.415 34.8603 183.263 34.6934 183.131 34.5072C182.997 34.3227 182.888 34.1251 182.805 33.9143C182.721 33.7035 182.663 33.4848 182.631 33.2582C182.599 33.0333 182.596 32.8093 182.62 32.5862C182.643 32.3596 182.693 32.1391 182.771 31.9248C182.849 31.7105 182.951 31.5094 183.078 31.3214C183.203 31.1317 183.35 30.9604 183.519 30.8075C183.687 30.653 183.77 30.5757 183.77 30.5757Z" fill="#657153"/>
<path d="M332.943 89.1978C332.943 89.1978 333.285 89.0656 333.969 88.8011C334.651 88.5362 335.425 88.3505 336.292 88.2441C337.16 88.1401 338.341 88.2337 339.836 88.5247C341.328 88.8171 342.438 89.2012 343.166 89.677C343.893 90.1504 344.688 90.9538 345.553 92.087C346.419 93.2185 347.055 94.27 347.46 95.2415C347.866 96.2112 348.153 97.2972 348.32 98.4995C348.488 99.7 348.482 100.786 348.301 101.757C348.123 102.728 347.647 103.818 346.872 105.025C346.096 106.232 345.132 107.052 343.98 107.485C342.825 107.92 341.644 108.102 340.439 108.031C339.233 107.96 338.038 107.736 336.854 107.359C335.668 106.981 334.555 106.474 333.515 105.839C332.475 105.204 331.581 104.582 330.834 103.973C330.088 103.364 329.421 102.724 328.831 102.053C328.24 101.379 327.677 100.474 327.143 99.338C326.609 98.2001 326.345 97.1744 326.351 96.261C326.358 95.3458 326.644 94.2548 327.212 92.988C327.779 91.7212 328.789 90.6153 330.242 89.6703C331.696 88.7235 332.643 88.2015 333.083 88.1044C333.521 88.0067 333.963 87.9811 334.41 88.0274C334.858 88.0762 335.285 88.1937 335.692 88.3801C336.1 88.567 336.469 88.8141 336.797 89.1215C337.124 89.4288 337.395 89.7804 337.607 90.1763C337.82 90.5722 337.964 90.9912 338.039 91.4335C338.112 91.877 338.113 92.3199 338.042 92.7621C337.972 93.2025 337.833 93.6212 337.625 94.0181C337.415 94.4145 337.148 94.7675 336.823 95.0771C336.496 95.3862 336.13 95.635 335.724 95.8236C335.315 96.0134 334.888 96.1331 334.442 96.1826C333.996 96.2321 333.552 96.2086 333.112 96.1122C332.674 96.0188 332.263 95.8569 331.877 95.6265C331.489 95.3957 331.149 95.1098 330.857 94.7688C330.564 94.4278 330.334 94.0488 330.166 93.6316C329.999 93.215 329.902 92.7834 329.874 92.3368C329.848 91.8889 329.895 91.4489 330.015 91.0167C330.133 90.5859 330.317 90.1842 330.568 89.8115C330.818 89.4407 331.122 89.1193 331.48 88.8471C331.837 88.5745 332.227 88.3665 332.653 88.2233C333.078 88.0782 333.516 88.0054 333.966 88.0049C334.416 88.0044 334.854 88.0751 335.28 88.217C335.705 88.3589 336.098 88.5653 336.458 88.8361C336.817 89.1064 337.123 89.4265 337.377 89.7963C337.631 90.1681 337.818 90.5698 337.941 91.0016C338.063 91.4334 338.113 91.8733 338.09 92.3214C338.066 92.769 337.972 93.2007 337.809 93.6164C337.643 94.0334 337.416 94.4127 337.126 94.7542C336.836 95.0957 336.499 95.383 336.116 95.6161C335.732 95.8487 335.539 95.965 335.539 95.965C335.539 95.965 335.322 95.9097 334.886 95.8046C334.452 95.7001 334.485 95.9836 334.984 96.6552C335.486 97.3273 336.133 97.9544 336.926 98.5368C337.722 99.1177 338.568 99.6056 339.465 100C340.361 100.397 340.834 100.18 340.882 99.3481C340.93 98.5185 340.742 97.6293 340.318 96.6803C339.894 95.7295 339.241 95.1075 338.357 94.8141C337.475 94.5194 336.698 94.4792 336.027 94.6933C335.355 94.9075 334.898 95.0415 334.655 95.0953C334.413 95.1496 334.168 95.174 333.919 95.1686C333.671 95.1631 333.426 95.1278 333.185 95.0626C332.947 94.9984 332.719 94.9062 332.502 94.786C332.284 94.6658 332.084 94.5216 331.9 94.3532C331.716 94.1849 331.556 93.9974 331.419 93.7907C331.282 93.584 331.173 93.3632 331.09 93.1282C331.005 92.8945 330.951 92.6546 330.927 92.4087C330.902 92.1622 330.907 91.9153 330.942 91.6681C330.976 91.4228 331.04 91.1869 331.133 90.9603C331.225 90.7296 331.344 90.5135 331.489 90.3121C331.635 90.1106 331.803 89.9304 331.993 89.7715C332.181 89.6102 332.387 89.4748 332.61 89.3654C332.832 89.2536 332.943 89.1978 332.943 89.1978Z" fill="#657153"/>
</svg>