<svg width="151" height="146" viewBox="0 0 151 146" fill="none" xmlns="http://www.w3.org/2000/svg">
<rect width="151" height="146" fill="#657153"/>
<path d="M74.4775 68.8027L61.2793 66.4219C62.763 61.1081 65.3164 57.1745 68.9395 54.6211C72.5625 52.0677 77.9453 50.791 85.0879 50.791C91.5749 50.791 96.4056 51.5674 99.5801 53.1201C102.755 54.6383 104.98 56.5879 106.257 58.9688C107.568 61.3151 108.224 65.6455 108.224 71.96L108.068 88.9365C108.068 93.7673 108.293 97.3385 108.741 99.6504C109.224 101.928 110.104 104.378 111.381 107H96.9922C96.6126 106.034 96.1468 104.602 95.5947 102.704C95.3532 101.841 95.1807 101.272 95.0771 100.996C92.5928 103.411 89.9359 105.223 87.1064 106.431C84.277 107.638 81.2578 108.242 78.0488 108.242C72.39 108.242 67.9215 106.707 64.6436 103.636C61.4001 100.565 59.7783 96.6829 59.7783 91.9902C59.7783 88.8848 60.5202 86.1243 62.0039 83.709C63.4876 81.2591 65.5579 79.3958 68.2148 78.1191C70.9062 76.8079 74.7708 75.6693 79.8086 74.7031C86.6061 73.4264 91.3161 72.236 93.9385 71.1318V69.6826C93.9385 66.8877 93.2484 64.9036 91.8682 63.7305C90.488 62.5228 87.8828 61.9189 84.0527 61.9189C81.4648 61.9189 79.4463 62.4365 77.9971 63.4717C76.5479 64.4723 75.3747 66.2493 74.4775 68.8027ZM93.9385 80.6035C92.0752 81.2246 89.125 81.9665 85.0879 82.8291C81.0508 83.6917 78.4111 84.5371 77.1689 85.3652C75.2712 86.7109 74.3223 88.4189 74.3223 90.4893C74.3223 92.5251 75.0814 94.2848 76.5996 95.7686C78.1178 97.2523 80.0501 97.9941 82.3965 97.9941C85.0189 97.9941 87.5205 97.1315 89.9014 95.4062C91.6611 94.0951 92.8171 92.4906 93.3691 90.5928C93.7487 89.3506 93.9385 86.987 93.9385 83.502V80.6035Z" fill="#F5F5F5"/>
<path d="M44.0814 134.897L43.1026 134.95C42.4501 134.989 41.6202 135.042 40.6129 135.108C39.6056 135.179 38.6268 135.126 37.6765 134.95C36.7262 134.773 35.6948 134.388 34.5824 133.793C33.4657 133.202 32.4869 132.522 31.646 131.751C30.8052 130.984 30.0738 130.182 29.452 129.345C28.8301 128.507 28.2564 127.556 27.7308 126.489C27.2053 125.427 26.728 124.315 26.2988 123.151C25.8696 121.983 25.5302 120.833 25.2806 119.701C25.0265 118.564 24.8711 117.5 24.8141 116.508C24.7616 115.517 24.7244 114.356 24.7025 113.025C24.6849 111.694 24.6696 110.43 24.6565 109.231C24.6433 108.037 24.6587 106.752 24.7025 105.377C24.7506 103.998 24.9543 102.698 25.3134 101.478C25.6725 100.257 26.0929 99.0034 26.5747 97.7167C27.052 96.4256 27.4922 95.2689 27.8951 94.2466C28.298 93.2287 28.6987 92.2526 29.0972 91.3184C29.4914 90.3887 29.8768 89.4853 30.2534 88.6084C30.63 87.7315 30.9322 86.7511 31.1599 85.6671C31.3877 84.5831 31.1687 83.6599 30.503 82.8976C29.833 82.1396 28.9746 81.6571 27.9279 81.45C26.8812 81.2385 25.8608 81.1372 24.8667 81.146C23.8769 81.1548 22.7777 81.1614 21.569 81.1658C20.3603 81.1702 19.191 81.157 18.0611 81.1261C16.9312 81.0953 15.8451 80.9345 14.8028 80.6436C13.7649 80.3528 12.6722 79.824 11.5248 79.0573C10.3774 78.2905 9.63068 77.4026 9.28471 76.3935C8.93873 75.3844 8.90808 74.0713 9.19274 72.4541C9.48178 70.8325 10.0292 69.5943 10.835 68.7394C11.6408 67.8845 12.4795 67.1861 13.351 66.6441C14.2225 66.1065 15.129 65.5138 16.0706 64.8661C17.0166 64.2227 17.9428 63.6675 18.8494 63.2004C19.7559 62.7333 20.6734 62.2772 21.6018 61.8322C22.5259 61.3871 23.4083 60.898 24.2492 60.3648C25.09 59.8316 25.7973 59.1111 26.371 58.2034C26.9447 57.3001 27.2732 56.2227 27.3564 54.9712C27.444 53.7153 27.5053 52.4308 27.5403 51.1177C27.5754 49.8046 27.5425 48.6545 27.4418 47.6674C27.3367 46.6803 27.2119 45.5963 27.0674 44.4154C26.9185 43.23 26.8002 42.0997 26.7126 41.0245C26.625 39.9538 26.5747 38.8852 26.5615 37.8188C26.544 36.7568 26.5396 35.6464 26.5484 34.4875C26.5528 33.333 26.7345 31.8436 27.0936 30.0193C27.4527 28.1949 27.8513 26.8047 28.2892 25.8485C28.7272 24.8967 29.1717 24.0065 29.6227 23.1781C30.0738 22.3453 30.757 21.2194 31.6723 19.8005C32.5832 18.3816 33.4547 17.1742 34.2868 16.1783C35.1145 15.1825 35.9072 14.3541 36.6649 13.6931C37.4269 13.0277 38.2436 12.4526 39.1151 11.9679C39.9867 11.4832 40.9742 11.08 42.0778 10.7583C43.1814 10.4366 44.3048 10.2361 45.4478 10.1568C46.5952 10.0775 48.0689 10.0268 49.8688 10.0048C51.6644 9.98718 52.8118 10.018 53.3111 10.0973C53.6906 10.161 54.0549 10.2692 54.4041 10.422C54.4613 10.447 54.5182 10.4733 54.5746 10.5007C54.6609 10.5427 54.7457 10.5871 54.829 10.6341C55.2358 10.8631 55.6013 11.1469 55.9256 11.4854C56.1504 11.7259 56.3466 11.986 56.5141 12.2657C56.5194 12.2744 56.5247 12.2831 56.5299 12.2918C56.7275 12.622 56.8815 12.9715 56.992 13.3403C57.0233 13.4438 57.0508 13.5484 57.0745 13.6541C57.077 13.6649 57.0794 13.6757 57.0817 13.6865C57.1912 14.1844 57.2197 14.6845 57.1671 15.1869C57.1293 15.5239 57.0575 15.8511 56.9519 16.1686C56.9307 16.2326 56.908 16.2962 56.884 16.3592C56.8479 16.454 56.8087 16.548 56.7664 16.641C56.6477 16.897 56.5089 17.1381 56.35 17.3644C56.1267 17.6864 55.8648 17.9763 55.5643 18.234C55.1789 18.5645 54.7519 18.8223 54.2833 19.0073C53.997 19.1231 53.7034 19.2084 53.4025 19.2633C53.3743 19.2686 53.346 19.2736 53.3176 19.2783L52.5687 19.4039H50.0133C48.3097 19.4039 46.8295 19.481 45.5726 19.6353C44.3245 19.7895 43.3106 20.1663 42.5311 20.7655C41.7559 21.3648 41.0487 22.1007 40.4093 22.9732C39.7655 23.8501 39.0911 24.9539 38.386 26.2847C37.6809 27.6155 37.1335 28.7744 36.7437 29.7615C36.3539 30.7485 36.1393 31.7863 36.0999 32.8747C36.0605 33.9631 36.0474 35.0251 36.0605 36.0606C36.0693 37.0961 36.1131 38.2506 36.1919 39.5241C36.2751 40.7932 36.3911 41.9653 36.54 43.0405C36.6933 44.1157 36.8597 45.4068 37.0393 46.9139C37.2232 48.4253 37.324 49.8685 37.3415 51.2433C37.359 52.6225 37.3459 54.0348 37.3021 55.4802C37.2583 56.9299 37.1006 58.2563 36.8291 59.4593C36.5576 60.6666 36.1262 61.8608 35.535 63.0418C34.9394 64.2271 34.2518 65.1877 33.4723 65.9236C32.6927 66.6595 31.865 67.3535 30.9891 68.0057C30.1132 68.6535 29.2352 69.2241 28.3549 69.7176C27.4746 70.2112 26.5484 70.6981 25.5762 71.1784C25.3788 71.2759 25.1211 71.3021 26.036 71.3106C26.982 71.3194 28.0002 71.3657 29.0907 71.4494C30.1855 71.5287 31.2037 71.7799 32.1453 72.2029C33.0869 72.626 33.9649 73.1327 34.7795 73.7232C35.5941 74.3092 36.4174 75.0495 37.2495 75.9441C38.086 76.8386 38.8371 77.8389 39.5027 78.9449C40.1684 80.0554 40.5954 81.4456 40.7837 83.1157C40.9764 84.7902 40.9611 86.1254 40.7377 87.1212C40.5188 88.1215 40.164 89.2452 39.6735 90.4922C39.183 91.7437 38.7451 92.8145 38.3597 93.7046C37.9743 94.5947 37.5188 95.6875 36.9933 96.983C36.4678 98.283 35.9532 99.6005 35.4496 100.936C34.9503 102.271 34.5824 103.502 34.346 104.631C34.1095 105.763 33.9847 106.891 33.9715 108.015C33.9584 109.138 33.9474 110.348 33.9387 111.644C33.9255 112.939 33.919 114.096 33.919 115.114C33.9146 116.127 34.0066 117.141 34.1949 118.154C34.3832 119.168 34.6328 120.137 34.9437 121.062C35.2591 121.988 35.6423 122.9 36.0933 123.799C36.54 124.698 37.1313 125.542 37.867 126.331C38.5984 127.115 39.4896 127.578 40.5407 127.719C41.5961 127.855 42.4501 127.943 43.1026 127.983C43.7551 128.018 44.2172 128.053 44.4887 128.089C44.7602 128.12 45.023 128.186 45.277 128.287C45.5354 128.384 45.7762 128.51 45.9996 128.664C46.2273 128.822 46.431 129.005 46.6105 129.212C46.7945 129.419 46.9499 129.644 47.0769 129.887C47.2039 130.129 47.3003 130.385 47.366 130.653C47.4317 130.922 47.4645 131.193 47.4645 131.466C47.4645 131.74 47.4317 132.011 47.366 132.279C47.3003 132.548 47.2039 132.804 47.0769 133.046C46.9499 133.288 46.7945 133.513 46.6105 133.72C46.431 133.927 46.2273 134.11 45.9996 134.269C45.7762 134.423 45.5354 134.549 45.277 134.646C45.023 134.747 44.7602 134.813 44.4887 134.844L44.0814 134.897Z" fill="#FFEB3B"/>
<path d="M127.383 91.7671C127.383 91.7671 127.725 91.6349 128.409 91.3705C129.091 91.1055 129.865 90.9198 130.732 90.8135C131.6 90.7095 132.781 90.803 134.276 91.0941C135.768 91.3864 136.878 91.7705 137.606 92.2463C138.332 92.7197 139.128 93.5231 139.993 94.6564C140.859 95.7878 141.495 96.8393 141.9 97.8108C142.306 98.7806 142.593 99.8666 142.76 101.069C142.928 102.269 142.922 103.355 142.741 104.326C142.563 105.298 142.086 106.387 141.312 107.594C140.536 108.801 139.572 109.621 138.419 110.055C137.265 110.489 136.084 110.671 134.879 110.6C133.673 110.53 132.478 110.306 131.294 109.928C130.108 109.55 128.995 109.044 127.955 108.409C126.915 107.773 126.021 107.151 125.274 106.542C124.528 105.934 123.86 105.294 123.271 104.622C122.68 103.948 122.117 103.043 121.583 101.907C121.049 100.769 120.785 99.7438 120.791 98.8304C120.798 97.9151 121.084 96.8241 121.652 95.5573C122.219 94.2905 123.229 93.1847 124.682 92.2397C126.136 91.2928 127.083 90.7709 127.523 90.6737C127.961 90.576 128.403 90.5504 128.85 90.5968C129.298 90.6455 129.725 90.7631 130.132 90.9494C130.54 91.1363 130.909 91.3835 131.236 91.6908C131.564 91.9982 131.835 92.3498 132.047 92.7456C132.26 93.1415 132.404 93.5606 132.479 94.0028C132.552 94.4463 132.553 94.8892 132.482 95.3315C132.412 95.7718 132.273 96.1905 132.065 96.5875C131.855 96.9839 131.588 97.3369 131.263 97.6465C130.936 97.9555 130.57 98.2043 130.164 98.3929C129.755 98.5828 129.328 98.7025 128.882 98.7519C128.435 98.8014 127.992 98.778 127.552 98.6816C127.114 98.5881 126.703 98.4262 126.317 98.1959C125.929 97.965 125.589 97.6791 125.297 97.3381C125.004 96.9971 124.774 96.6181 124.605 96.201C124.439 95.7844 124.342 95.3528 124.314 94.9062C124.288 94.4582 124.335 94.0182 124.455 93.5861C124.573 93.1552 124.757 92.7535 125.008 92.3809C125.258 92.0101 125.562 91.6886 125.92 91.4165C126.277 91.1438 126.667 90.9359 127.092 90.7926C127.518 90.6475 127.956 90.5747 128.406 90.5742C128.856 90.5737 129.294 90.6444 129.72 90.7863C130.145 90.9283 130.538 91.1346 130.898 91.4054C131.257 91.6757 131.563 91.9958 131.817 92.3657C132.071 92.7374 132.258 93.1392 132.381 93.5709C132.503 94.0027 132.553 94.4427 132.53 94.8908C132.506 95.3383 132.412 95.77 132.249 96.1857C132.083 96.6028 131.856 96.982 131.566 97.3235C131.276 97.665 130.939 97.9523 130.556 98.1855C130.172 98.418 129.979 98.5343 129.979 98.5343C129.979 98.5343 129.762 98.479 129.326 98.374C128.892 98.2694 128.925 98.553 129.424 99.2245C129.926 99.8966 130.573 100.524 131.366 101.106C132.162 101.687 133.008 102.175 133.905 102.57C134.801 102.966 135.274 102.749 135.322 101.917C135.37 101.088 135.182 100.199 134.758 99.2497C134.334 98.2989 133.681 97.6768 132.797 97.3834C131.915 97.0888 131.138 97.0485 130.467 97.2627C129.795 97.4768 129.338 97.6108 129.094 97.6646C128.853 97.7189 128.608 97.7434 128.359 97.7379C128.111 97.7325 127.866 97.6971 127.625 97.6319C127.387 97.5677 127.159 97.4756 126.942 97.3554C126.724 97.2352 126.524 97.0909 126.34 96.9226C126.156 96.7542 125.996 96.5667 125.859 96.3601C125.722 96.1534 125.613 95.9325 125.53 95.6975C125.445 95.4638 125.391 95.224 125.367 94.978C125.342 94.7315 125.347 94.4846 125.382 94.2375C125.416 93.9921 125.48 93.7562 125.573 93.5297C125.665 93.2989 125.784 93.0828 125.929 92.8814C126.075 92.68 126.243 92.4998 126.432 92.3408C126.621 92.1795 126.827 92.0441 127.05 91.9347C127.272 91.823 127.383 91.7671 127.383 91.7671Z" fill="#FFEB3B"/>
</svg>
