<svg
  width="100%"
  height="100%"
  viewBox="0 0 75 75"
  version="1.1"
  xmlns="http://www.w3.org/2000/svg"
  xmlns:xlink="http://www.w3.org/1999/xlink"
  xml:space="preserve"
  xmlns:serif="http://www.serif.com/"
  style="
    fill-rule: evenodd;
    clip-rule: evenodd;
    stroke-linejoin: round;
    stroke-miterlimit: 2;
  "
>
  <g transform="matrix(1.00181,0,0,0.999007,-0.164587,-0.142307)">
    <rect
      x="0.164"
      y="0.142"
      width="74.865"
      height="75.075"
      style="fill: rgb(255, 235, 59)"
    />
  </g>
  <g transform="matrix(2.41438,0,0,0.542651,-443.792,-66.894)">
    <g transform="matrix(26.5078,0,0,117.939,186.873,222.899)">
      <path
        d="M0.029,-0.2L0.029,-0.317C0.053,-0.319 0.071,-0.322 0.083,-0.328C0.095,-0.334 0.105,-0.344 0.114,-0.358C0.123,-0.372 0.129,-0.389 0.132,-0.41C0.135,-0.425 0.136,-0.452 0.136,-0.491C0.136,-0.554 0.139,-0.598 0.145,-0.623C0.151,-0.648 0.161,-0.668 0.177,-0.683C0.192,-0.698 0.214,-0.71 0.244,-0.719C0.264,-0.725 0.295,-0.728 0.337,-0.728L0.363,-0.728L0.363,-0.611C0.327,-0.611 0.304,-0.609 0.294,-0.605C0.283,-0.601 0.276,-0.595 0.271,-0.587C0.266,-0.578 0.264,-0.564 0.264,-0.544C0.264,-0.523 0.262,-0.485 0.259,-0.427C0.258,-0.395 0.253,-0.369 0.247,-0.349C0.24,-0.329 0.231,-0.312 0.22,-0.299C0.21,-0.286 0.194,-0.273 0.172,-0.259C0.191,-0.248 0.207,-0.235 0.219,-0.22C0.231,-0.205 0.241,-0.187 0.247,-0.166C0.254,-0.145 0.258,-0.117 0.26,-0.081C0.262,-0.027 0.263,0.007 0.263,0.022C0.263,0.044 0.266,0.059 0.271,0.067C0.276,0.076 0.284,0.082 0.295,0.087C0.305,0.091 0.328,0.093 0.363,0.093L0.363,0.21L0.337,0.21C0.293,0.21 0.26,0.207 0.236,0.2C0.213,0.193 0.193,0.181 0.177,0.165C0.161,0.149 0.15,0.129 0.145,0.105C0.139,0.081 0.136,0.043 0.136,-0.008C0.136,-0.068 0.134,-0.107 0.128,-0.125C0.121,-0.151 0.11,-0.17 0.096,-0.181C0.081,-0.192 0.059,-0.199 0.029,-0.2Z"
        style="fill: rgb(54, 54, 54); fill-rule: nonzero"
      />
    </g>
    <g transform="matrix(26.5078,0,0,117.939,197.189,222.899)">
      <path
        d="M0.174,-0.36L0.05,-0.383C0.064,-0.433 0.088,-0.47 0.122,-0.494C0.156,-0.518 0.207,-0.53 0.274,-0.53C0.336,-0.53 0.381,-0.523 0.411,-0.509C0.441,-0.494 0.462,-0.476 0.474,-0.453C0.487,-0.431 0.493,-0.39 0.493,-0.331L0.491,-0.17C0.491,-0.125 0.493,-0.091 0.498,-0.07C0.502,-0.048 0.51,-0.025 0.522,-0L0.387,-0C0.383,-0.009 0.379,-0.023 0.374,-0.041C0.371,-0.049 0.37,-0.054 0.369,-0.057C0.345,-0.034 0.32,-0.017 0.293,-0.005C0.267,0.006 0.238,0.012 0.208,0.012C0.155,0.012 0.113,-0.003 0.082,-0.032C0.051,-0.061 0.036,-0.097 0.036,-0.142C0.036,-0.171 0.043,-0.197 0.057,-0.22C0.071,-0.243 0.09,-0.26 0.115,-0.273C0.141,-0.285 0.177,-0.296 0.225,-0.305C0.289,-0.317 0.333,-0.328 0.358,-0.338L0.358,-0.352C0.358,-0.378 0.351,-0.397 0.338,-0.408C0.325,-0.42 0.301,-0.425 0.265,-0.425C0.24,-0.425 0.221,-0.42 0.208,-0.411C0.194,-0.401 0.183,-0.384 0.174,-0.36ZM0.358,-0.249C0.34,-0.243 0.313,-0.236 0.274,-0.228C0.236,-0.22 0.211,-0.212 0.2,-0.204C0.182,-0.191 0.173,-0.175 0.173,-0.156C0.173,-0.137 0.18,-0.12 0.194,-0.106C0.209,-0.092 0.227,-0.085 0.249,-0.085C0.274,-0.085 0.297,-0.093 0.32,-0.109C0.336,-0.122 0.347,-0.137 0.353,-0.155C0.356,-0.167 0.358,-0.189 0.358,-0.222L0.358,-0.249Z"
        style="fill: rgb(54, 54, 54); fill-rule: nonzero"
      />
    </g>
  </g>
  <linearGradient
    id="gradient"
    x1="16"
    x2="16"
    y1="32"
    y2="24"
    gradientUnits="userSpaceOnUse"
  >
    <stop stop-color="#000" />
    <stop offset="1" stop-color="#000" stop-opacity="0" />
  </linearGradient>
  <style>
    @media (prefers-color-scheme: dark) {
      :root {
        filter: invert(100%);
      }
    }
  </style>
</svg>
